<mxfile host="www.draw.io" modified="2019-12-25T12:48:14.954Z" agent="Mozilla/5.0 (Windows NT 10.0; Win64; x64) AppleWebKit/537.36 (KHTML, like Gecko) Chrome/79.0.3945.88 Safari/537.36" etag="r48Qk0O-AuVqaltYAnC_" version="12.4.3" type="github" pages="1">
  <diagram id="yIS2CbSkpx6WQIdUqg5B" name="Page-1">
    <mxGraphModel dx="1038" dy="548" grid="1" gridSize="10" guides="1" tooltips="1" connect="1" arrows="1" fold="1" page="1" pageScale="1" pageWidth="850" pageHeight="1100" math="0" shadow="0">
      <root>
        <mxCell id="0"/>
        <mxCell id="1" parent="0"/>
        <mxCell id="fvnYYuM3O2jirpzC8SdE-2" style="edgeStyle=orthogonalEdgeStyle;rounded=0;orthogonalLoop=1;jettySize=auto;html=1;" parent="1" source="fvnYYuM3O2jirpzC8SdE-1" edge="1">
          <mxGeometry relative="1" as="geometry">
            <mxPoint x="270" y="200" as="targetPoint"/>
            <Array as="points">
              <mxPoint x="160" y="200"/>
              <mxPoint x="160" y="200"/>
            </Array>
          </mxGeometry>
        </mxCell>
        <mxCell id="fvnYYuM3O2jirpzC8SdE-7" value="1 - Ask To See Own Athletes" style="text;html=1;align=center;verticalAlign=middle;resizable=0;points=[];;labelBackgroundColor=#ffffff;" parent="fvnYYuM3O2jirpzC8SdE-2" vertex="1" connectable="0">
          <mxGeometry x="0.1242" relative="1" as="geometry">
            <mxPoint x="-17" y="-10" as="offset"/>
          </mxGeometry>
        </mxCell>
        <mxCell id="fvnYYuM3O2jirpzC8SdE-1" value="Coach" style="shape=umlActor;verticalLabelPosition=bottom;labelBackgroundColor=#ffffff;verticalAlign=top;html=1;outlineConnect=0;" parent="1" vertex="1">
          <mxGeometry x="50" y="170" width="30" height="120" as="geometry"/>
        </mxCell>
        <mxCell id="fvnYYuM3O2jirpzC8SdE-4" style="edgeStyle=orthogonalEdgeStyle;rounded=0;orthogonalLoop=1;jettySize=auto;html=1;" parent="1" edge="1">
          <mxGeometry relative="1" as="geometry">
            <mxPoint x="600" y="200" as="targetPoint"/>
            <mxPoint x="400" y="200" as="sourcePoint"/>
            <Array as="points">
              <mxPoint x="490" y="200"/>
              <mxPoint x="490" y="200"/>
            </Array>
          </mxGeometry>
        </mxCell>
        <mxCell id="fvnYYuM3O2jirpzC8SdE-8" value="2 -&amp;nbsp; Get Own Athletes List" style="text;html=1;align=center;verticalAlign=middle;resizable=0;points=[];;labelBackgroundColor=#ffffff;" parent="fvnYYuM3O2jirpzC8SdE-4" vertex="1" connectable="0">
          <mxGeometry x="0.2" y="6" relative="1" as="geometry">
            <mxPoint x="-20" y="-4" as="offset"/>
          </mxGeometry>
        </mxCell>
        <mxCell id="fvnYYuM3O2jirpzC8SdE-3" value="&amp;lt;&amp;lt; System &amp;gt;&amp;gt;" style="rounded=0;whiteSpace=wrap;html=1;" parent="1" vertex="1">
          <mxGeometry x="270" y="180" width="120" height="190" as="geometry"/>
        </mxCell>
        <mxCell id="fvnYYuM3O2jirpzC8SdE-5" value="Coach" style="rounded=0;whiteSpace=wrap;html=1;" parent="1" vertex="1">
          <mxGeometry x="610" y="180" width="120" height="190" as="geometry"/>
        </mxCell>
        <mxCell id="fvnYYuM3O2jirpzC8SdE-9" value="" style="endArrow=classic;html=1;entryX=0;entryY=0.25;entryDx=0;entryDy=0;" parent="1" target="fvnYYuM3O2jirpzC8SdE-3" edge="1">
          <mxGeometry width="50" height="50" relative="1" as="geometry">
            <mxPoint x="80" y="228" as="sourcePoint"/>
            <mxPoint x="130" y="220" as="targetPoint"/>
          </mxGeometry>
        </mxCell>
        <mxCell id="fvnYYuM3O2jirpzC8SdE-10" value="3 - Choose an Athlete" style="text;html=1;align=center;verticalAlign=middle;resizable=0;points=[];;labelBackgroundColor=#ffffff;" parent="fvnYYuM3O2jirpzC8SdE-9" vertex="1" connectable="0">
          <mxGeometry x="-0.1284" relative="1" as="geometry">
            <mxPoint as="offset"/>
          </mxGeometry>
        </mxCell>
        <mxCell id="fvnYYuM3O2jirpzC8SdE-11" style="edgeStyle=orthogonalEdgeStyle;rounded=0;orthogonalLoop=1;jettySize=auto;html=1;" parent="1" edge="1">
          <mxGeometry relative="1" as="geometry">
            <mxPoint x="600" y="240" as="targetPoint"/>
            <mxPoint x="400" y="240" as="sourcePoint"/>
            <Array as="points">
              <mxPoint x="490" y="240"/>
              <mxPoint x="490" y="240"/>
            </Array>
          </mxGeometry>
        </mxCell>
        <mxCell id="fvnYYuM3O2jirpzC8SdE-12" value="4 -&amp;nbsp; Get Specific Athlete Info" style="text;html=1;align=center;verticalAlign=middle;resizable=0;points=[];;labelBackgroundColor=#ffffff;" parent="fvnYYuM3O2jirpzC8SdE-11" vertex="1" connectable="0">
          <mxGeometry x="0.2" y="6" relative="1" as="geometry">
            <mxPoint x="-20" y="-4" as="offset"/>
          </mxGeometry>
        </mxCell>
        <mxCell id="fvnYYuM3O2jirpzC8SdE-13" value="" style="endArrow=classic;html=1;entryX=0;entryY=0.25;entryDx=0;entryDy=0;" parent="1" edge="1">
          <mxGeometry width="50" height="50" relative="1" as="geometry">
            <mxPoint x="80" y="260.5" as="sourcePoint"/>
            <mxPoint x="270" y="260" as="targetPoint"/>
          </mxGeometry>
        </mxCell>
        <mxCell id="fvnYYuM3O2jirpzC8SdE-14" value="4 - Write Program and Send" style="text;html=1;align=center;verticalAlign=middle;resizable=0;points=[];;labelBackgroundColor=#ffffff;" parent="fvnYYuM3O2jirpzC8SdE-13" vertex="1" connectable="0">
          <mxGeometry x="-0.1284" relative="1" as="geometry">
            <mxPoint as="offset"/>
          </mxGeometry>
        </mxCell>
        <mxCell id="fvnYYuM3O2jirpzC8SdE-15" value="" style="endArrow=classic;html=1;" parent="1" edge="1">
          <mxGeometry width="50" height="50" relative="1" as="geometry">
            <mxPoint x="400" y="275" as="sourcePoint"/>
            <mxPoint x="600" y="275" as="targetPoint"/>
          </mxGeometry>
        </mxCell>
        <mxCell id="fvnYYuM3O2jirpzC8SdE-16" value="6 - Send Program To Athlete" style="text;html=1;align=center;verticalAlign=middle;resizable=0;points=[];;labelBackgroundColor=#ffffff;" parent="fvnYYuM3O2jirpzC8SdE-15" vertex="1" connectable="0">
          <mxGeometry x="-0.12" relative="1" as="geometry">
            <mxPoint as="offset"/>
          </mxGeometry>
        </mxCell>
      </root>
    </mxGraphModel>
  </diagram>
</mxfile>
